<svg width="911" height="341" viewBox="0 0 911 341" fill="none" xmlns="http://www.w3.org/2000/svg">
<path d="M154.937 121.207L155.052 159.025L147.056 159.05L146.964 128.821L146.743 128.822L138.099 134.277L138.077 127.186L147.421 121.23L154.937 121.207ZM173.33 159.487C170.72 159.495 168.392 159.022 166.345 158.068C164.311 157.114 162.695 155.795 161.495 154.112C160.296 152.429 159.669 150.499 159.613 148.32L167.368 148.296C167.459 149.761 168.078 150.947 169.226 151.855C170.373 152.762 171.735 153.213 173.311 153.209C174.567 153.205 175.674 152.924 176.632 152.368C177.603 151.798 178.358 151.014 178.896 150.016C179.447 149.004 179.721 147.846 179.717 146.541C179.713 145.212 179.426 144.043 178.857 143.036C178.3 142.028 177.528 141.242 176.541 140.679C175.555 140.116 174.427 139.83 173.159 139.821C172.052 139.825 170.975 140.056 169.93 140.514C168.897 140.973 168.093 141.597 167.517 142.387L160.403 141.134L162.134 121.186L185.253 121.115L185.273 127.652L168.746 127.702L167.796 137.178L168.018 137.178C168.68 136.24 169.681 135.461 171.021 134.842C172.361 134.222 173.862 133.91 175.524 133.905C177.801 133.898 179.834 134.427 181.622 135.493C183.41 136.559 184.825 138.025 185.864 139.894C186.904 141.749 187.421 143.89 187.416 146.315C187.436 148.863 186.852 151.13 185.664 153.116C184.488 155.089 182.837 156.645 180.711 157.784C178.597 158.911 176.137 159.478 173.33 159.487ZM188.729 158.923L188.614 121.105L196.61 121.081L196.661 137.756L197.159 137.754L210.718 121.038L220.302 121.009L206.319 137.985L220.582 158.827L211.017 158.856L200.611 143.339L196.692 148.152L196.725 158.899L188.729 158.923Z" fill="white"/>
<path d="M134.466 174.432C134.384 173.688 134.047 173.109 133.455 172.696C132.869 172.283 132.107 172.078 131.169 172.081C130.51 172.083 129.945 172.184 129.474 172.384C129.003 172.585 128.643 172.856 128.394 173.197C128.145 173.539 128.018 173.928 128.014 174.366C128.015 174.73 128.098 175.045 128.264 175.311C128.435 175.578 128.666 175.804 128.956 175.991C129.247 176.172 129.568 176.324 129.921 176.448C130.274 176.572 130.629 176.676 130.987 176.76L132.625 177.164C133.284 177.316 133.919 177.521 134.527 177.781C135.142 178.04 135.691 178.368 136.175 178.765C136.665 179.161 137.053 179.64 137.339 180.201C137.624 180.763 137.768 181.422 137.771 182.177C137.774 183.2 137.515 184.101 136.995 184.881C136.474 185.656 135.721 186.263 134.733 186.704C133.752 187.138 132.562 187.358 131.164 187.362C129.806 187.366 128.627 187.16 127.625 186.742C126.63 186.325 125.85 185.713 125.285 184.908C124.725 184.103 124.421 183.121 124.372 181.962L127.483 181.953C127.53 182.561 127.719 183.066 128.05 183.468C128.381 183.871 128.811 184.17 129.34 184.368C129.874 184.565 130.471 184.663 131.13 184.661C131.818 184.658 132.42 184.554 132.936 184.348C133.458 184.136 133.867 183.845 134.161 183.475C134.455 183.099 134.605 182.661 134.609 182.161C134.602 181.707 134.467 181.332 134.205 181.038C133.942 180.737 133.575 180.488 133.103 180.291C132.637 180.088 132.09 179.908 131.465 179.75L129.478 179.245C128.039 178.88 126.901 178.324 126.064 177.576C125.232 176.823 124.814 175.822 124.81 174.572C124.807 173.543 125.083 172.642 125.637 171.867C126.197 171.093 126.96 170.491 127.924 170.062C128.889 169.627 129.982 169.408 131.204 169.405C132.442 169.401 133.528 169.613 134.461 170.042C135.4 170.466 136.138 171.057 136.674 171.817C137.21 172.571 137.489 173.44 137.509 174.422L134.466 174.432ZM147.037 173.959L147.045 176.345L139.519 176.368L139.512 173.982L147.037 173.959ZM141.36 170.84L144.445 170.83L144.483 183.12C144.484 183.535 144.547 183.853 144.673 184.074C144.804 184.29 144.975 184.437 145.186 184.516C145.396 184.595 145.629 184.634 145.885 184.633C146.078 184.632 146.254 184.618 146.413 184.589C146.578 184.56 146.703 184.534 146.788 184.511L147.315 186.921C147.151 186.978 146.915 187.042 146.608 187.111C146.307 187.18 145.938 187.221 145.501 187.233C144.728 187.259 144.032 187.144 143.412 186.89C142.792 186.631 142.299 186.229 141.934 185.685C141.574 185.14 141.396 184.459 141.399 183.641L141.36 170.84ZM158.056 181.511L158.033 173.926L161.118 173.916L161.158 187.007L158.167 187.016L158.16 184.689L158.023 184.69C157.73 185.424 157.246 186.025 156.571 186.493C155.902 186.96 155.076 187.196 154.093 187.199C153.235 187.201 152.476 187.013 151.816 186.635C151.161 186.25 150.648 185.692 150.277 184.96C149.905 184.223 149.718 183.331 149.715 182.286L149.69 173.951L152.775 173.941L152.799 181.799C152.801 182.629 153.03 183.287 153.486 183.775C153.942 184.262 154.54 184.504 155.278 184.502C155.733 184.501 156.173 184.389 156.598 184.166C157.024 183.943 157.372 183.612 157.644 183.174C157.921 182.73 158.058 182.175 158.056 181.511ZM169.261 187.213C168.233 187.216 167.312 186.954 166.498 186.428C165.683 185.902 165.039 185.137 164.564 184.133C164.09 183.129 163.85 181.908 163.846 180.47C163.842 179.016 164.076 177.788 164.551 176.786C165.031 175.779 165.679 175.019 166.496 174.505C167.312 173.985 168.223 173.724 169.229 173.721C169.996 173.719 170.627 173.848 171.122 174.107C171.617 174.362 172.01 174.67 172.301 175.033C172.592 175.39 172.817 175.727 172.978 176.045L173.105 176.045L173.086 169.516L176.179 169.507L176.232 186.961L173.198 186.971L173.192 184.908L173.004 184.909C172.846 185.227 172.617 185.566 172.317 185.925C172.017 186.278 171.62 186.58 171.127 186.832C170.633 187.083 170.011 187.21 169.261 187.213ZM170.114 184.679C170.768 184.677 171.324 184.499 171.783 184.145C172.242 183.786 172.59 183.288 172.827 182.651C173.064 182.014 173.181 181.272 173.178 180.425C173.176 179.578 173.054 178.843 172.814 178.219C172.579 177.594 172.231 177.11 171.769 176.765C171.314 176.419 170.754 176.248 170.089 176.25C169.401 176.252 168.828 176.433 168.369 176.792C167.91 177.151 167.565 177.647 167.334 178.278C167.103 178.909 166.988 179.631 166.991 180.444C166.993 181.262 167.112 181.992 167.347 182.633C167.587 183.269 167.938 183.771 168.4 184.138C168.867 184.501 169.438 184.681 170.114 184.679ZM185.388 187.189C184.076 187.193 182.941 186.924 181.985 186.381C181.034 185.833 180.302 185.057 179.788 184.053C179.273 183.043 179.014 181.853 179.01 180.484C179.006 179.138 179.258 177.955 179.766 176.936C180.28 175.912 180.999 175.114 181.924 174.543C182.848 173.967 183.935 173.677 185.185 173.673C185.992 173.67 186.754 173.799 187.47 174.058C188.193 174.311 188.83 174.707 189.383 175.245C189.942 175.783 190.381 176.469 190.702 177.304C191.023 178.132 191.185 179.12 191.188 180.268L191.191 181.214L180.461 181.247L180.455 179.167L188.227 179.144C188.22 178.553 188.09 178.028 187.839 177.568C187.588 177.103 187.237 176.738 186.787 176.472C186.343 176.206 185.826 176.074 185.235 176.076C184.604 176.078 184.051 176.233 183.574 176.541C183.098 176.844 182.727 177.243 182.462 177.738C182.202 178.227 182.07 178.765 182.066 179.35L182.071 181.165C182.074 181.927 182.215 182.58 182.495 183.124C182.775 183.663 183.166 184.077 183.666 184.365C184.167 184.647 184.753 184.788 185.423 184.786C185.872 184.784 186.278 184.721 186.642 184.595C187.005 184.463 187.32 184.271 187.586 184.021C187.852 183.77 188.053 183.46 188.188 183.09L191.07 183.405C190.89 184.167 190.546 184.833 190.036 185.402C189.532 185.966 188.886 186.406 188.097 186.721C187.308 187.03 186.405 187.186 185.388 187.189ZM196.952 179.228L196.976 186.898L193.89 186.908L193.851 173.817L196.799 173.808L196.806 176.032L196.96 176.032C197.259 175.298 197.737 174.714 198.395 174.28C199.058 173.847 199.879 173.628 200.856 173.625C201.759 173.622 202.547 173.813 203.218 174.198C203.896 174.582 204.42 175.14 204.792 175.872C205.169 176.604 205.356 177.492 205.354 178.538L205.379 186.873L202.294 186.882L202.27 179.024C202.267 178.149 202.038 177.465 201.582 176.972C201.131 176.48 200.509 176.234 199.713 176.237C199.173 176.238 198.694 176.359 198.274 176.599C197.86 176.833 197.534 177.172 197.297 177.616C197.065 178.06 196.95 178.597 196.952 179.228ZM215.084 173.753L215.092 176.139L207.566 176.162L207.559 173.775L215.084 173.753ZM209.407 170.633L212.493 170.624L212.53 182.914C212.531 183.329 212.595 183.646 212.72 183.868C212.852 184.083 213.022 184.23 213.233 184.309C213.443 184.388 213.676 184.427 213.932 184.427C214.125 184.426 214.301 184.411 214.46 184.382C214.625 184.353 214.75 184.327 214.835 184.304L215.362 186.715C215.198 186.772 214.962 186.835 214.656 186.904C214.355 186.974 213.985 187.014 213.548 187.027C212.775 187.052 212.079 186.938 211.459 186.684C210.839 186.425 210.346 186.023 209.981 185.478C209.621 184.934 209.443 184.253 209.446 183.434L209.407 170.633ZM227.906 177.174L225.095 177.489C225.014 177.205 224.874 176.939 224.675 176.689C224.481 176.44 224.219 176.239 223.889 176.087C223.559 175.934 223.155 175.859 222.678 175.86C222.036 175.862 221.496 176.003 221.06 176.283C220.629 176.562 220.417 176.924 220.424 177.367C220.419 177.748 220.559 178.057 220.844 178.295C221.135 178.533 221.613 178.727 222.278 178.878L224.512 179.349C225.752 179.612 226.673 180.033 227.277 180.61C227.887 181.188 228.196 181.946 228.205 182.883C228.202 183.707 227.962 184.435 227.487 185.067C227.017 185.694 226.363 186.184 225.523 186.539C224.683 186.894 223.717 187.073 222.627 187.076C221.024 187.081 219.734 186.75 218.754 186.082C217.775 185.409 217.19 184.471 216.999 183.267L220.006 182.968C220.144 183.558 220.435 184.003 220.88 184.303C221.324 184.603 221.901 184.752 222.611 184.75C223.344 184.747 223.932 184.595 224.374 184.293C224.822 183.99 225.045 183.617 225.044 183.174C225.043 182.799 224.897 182.49 224.606 182.246C224.321 182.003 223.878 181.817 223.275 181.688L221.041 181.226C219.784 180.968 218.854 180.531 218.25 179.913C217.646 179.29 217.345 178.501 217.348 177.547C217.34 176.74 217.556 176.041 217.998 175.448C218.445 174.85 219.065 174.388 219.86 174.062C220.66 173.73 221.583 173.562 222.628 173.559C224.162 173.555 225.371 173.878 226.253 174.528C227.142 175.179 227.693 176.061 227.906 177.174Z" fill="white"/>
<path d="M400.488 158.281L400.47 152.52L413.894 140.015C415.036 138.903 415.993 137.903 416.766 137.014C417.551 136.126 418.145 135.256 418.549 134.405C418.953 133.542 419.153 132.612 419.15 131.615C419.147 130.507 418.891 129.554 418.384 128.755C417.877 127.944 417.186 127.325 416.31 126.897C415.435 126.456 414.443 126.237 413.335 126.241C412.178 126.244 411.169 126.481 410.309 126.952C409.449 127.422 408.786 128.095 408.321 128.97C407.856 129.846 407.625 130.887 407.629 132.093L400.039 132.116C400.032 129.642 400.585 127.492 401.7 125.667C402.815 123.841 404.38 122.427 406.396 121.424C408.412 120.42 410.737 119.915 413.372 119.907C416.08 119.899 418.439 120.372 420.448 121.326C422.47 122.267 424.044 123.58 425.169 125.263C426.295 126.946 426.861 128.877 426.867 131.056C426.871 132.484 426.593 133.895 426.031 135.288C425.481 136.68 424.494 138.228 423.072 139.931C421.649 141.622 419.642 143.654 417.052 146.025L411.547 151.452L411.548 151.711L427.428 151.663L427.448 158.2L400.488 158.281ZM429.953 158.192L445.537 127.122L445.536 126.863L427.273 126.919L427.254 120.382L453.789 120.301L453.809 126.931L438.208 158.167L429.953 158.192ZM465.883 152.322L465.804 126.174L472.414 126.154L472.494 152.302L465.883 152.322ZM456.085 142.583L456.065 135.972L482.213 135.893L482.233 142.504L456.085 142.583Z" fill="white"/>
<path d="M410.093 177.687L406.905 177.697C406.813 177.174 406.644 176.712 406.398 176.309C406.153 175.901 405.848 175.555 405.483 175.272C405.119 174.989 404.703 174.777 404.237 174.636C403.776 174.49 403.279 174.418 402.745 174.419C401.796 174.422 400.956 174.663 400.224 175.143C399.493 175.617 398.921 176.312 398.509 177.228C398.097 178.138 397.893 179.249 397.897 180.562C397.901 181.897 398.112 183.022 398.529 183.935C398.952 184.843 399.528 185.529 400.257 185.992C400.991 186.45 401.83 186.678 402.773 186.675C403.296 186.673 403.784 186.604 404.239 186.466C404.698 186.323 405.11 186.114 405.472 185.84C405.841 185.566 406.15 185.23 406.398 184.832C406.653 184.433 406.828 183.978 406.923 183.466L410.11 183.474C409.993 184.304 409.737 185.083 409.342 185.811C408.952 186.54 408.44 187.183 407.805 187.742C407.17 188.295 406.427 188.729 405.576 189.044C404.725 189.354 403.779 189.51 402.739 189.513C401.205 189.518 399.835 189.167 398.628 188.46C397.421 187.754 396.469 186.731 395.772 185.392C395.075 184.053 394.723 182.447 394.718 180.572C394.712 178.691 395.057 177.082 395.751 175.745C396.446 174.402 397.395 173.373 398.597 172.659C399.8 171.945 401.162 171.586 402.685 171.581C403.656 171.579 404.56 171.712 405.396 171.982C406.232 172.253 406.978 172.651 407.633 173.177C408.288 173.698 408.827 174.338 409.25 175.099C409.678 175.853 409.959 176.716 410.093 177.687ZM418.67 189.482C417.391 189.486 416.283 189.208 415.343 188.648C414.404 188.089 413.675 187.304 413.155 186.294C412.64 185.284 412.381 184.103 412.377 182.751C412.373 181.399 412.625 180.213 413.133 179.195C413.647 178.176 414.372 177.384 415.308 176.819C416.243 176.253 417.351 175.969 418.629 175.965C419.907 175.961 421.016 176.239 421.955 176.799C422.895 177.358 423.621 178.146 424.136 179.161C424.656 180.177 424.918 181.361 424.922 182.713C424.926 184.065 424.671 185.248 424.157 186.261C423.649 187.274 422.927 188.063 421.991 188.628C421.055 189.193 419.948 189.478 418.67 189.482ZM418.679 187.01C419.373 187.008 419.952 186.816 420.416 186.434C420.881 186.046 421.226 185.528 421.451 184.88C421.682 184.231 421.797 183.509 421.794 182.714C421.792 181.913 421.673 181.189 421.438 180.542C421.209 179.889 420.861 179.37 420.394 178.985C419.927 178.6 419.347 178.409 418.653 178.411C417.943 178.413 417.353 178.608 416.882 178.996C416.418 179.384 416.07 179.905 415.839 180.559C415.614 181.207 415.502 181.932 415.505 182.733C415.507 183.528 415.623 184.25 415.852 184.897C416.087 185.544 416.438 186.06 416.905 186.445C417.378 186.824 417.969 187.012 418.679 187.01ZM435.959 183.668L435.936 176.083L439.022 176.074L439.061 189.164L436.07 189.174L436.063 186.847L435.926 186.847C435.633 187.581 435.149 188.182 434.475 188.65C433.805 189.118 432.979 189.353 431.997 189.356C431.139 189.359 430.379 189.171 429.719 188.792C429.065 188.408 428.552 187.85 428.18 187.118C427.809 186.38 427.621 185.489 427.618 184.443L427.593 176.108L430.678 176.099L430.702 183.957C430.704 184.786 430.934 185.445 431.39 185.932C431.846 186.419 432.443 186.662 433.182 186.66C433.636 186.658 434.076 186.546 434.502 186.323C434.927 186.1 435.275 185.77 435.547 185.331C435.824 184.887 435.961 184.333 435.959 183.668ZM442.306 189.155L442.266 176.064L445.258 176.055L445.264 178.237L445.401 178.236C445.637 177.48 446.044 176.896 446.623 176.485C447.207 176.069 447.874 175.859 448.624 175.857C448.794 175.856 448.984 175.864 449.195 175.881C449.411 175.892 449.59 175.911 449.732 175.939L449.74 178.777C449.61 178.732 449.402 178.693 449.118 178.659C448.839 178.621 448.569 178.601 448.308 178.602C447.746 178.604 447.24 178.728 446.792 178.973C446.35 179.213 446.001 179.547 445.747 179.974C445.492 180.401 445.366 180.892 445.368 181.449L445.391 189.145L442.306 189.155ZM462.211 179.464L459.399 179.779C459.319 179.495 459.179 179.228 458.979 178.979C458.785 178.73 458.523 178.529 458.193 178.376C457.863 178.224 457.46 178.148 456.982 178.15C456.34 178.152 455.801 178.293 455.364 178.572C454.933 178.852 454.721 179.214 454.728 179.657C454.724 180.037 454.864 180.347 455.149 180.584C455.439 180.822 455.917 181.017 456.582 181.168L458.817 181.639C460.056 181.902 460.978 182.322 461.582 182.9C462.192 183.478 462.501 184.235 462.509 185.173C462.506 185.997 462.267 186.725 461.792 187.357C461.322 187.983 460.667 188.474 459.827 188.829C458.987 189.184 458.022 189.363 456.931 189.366C455.329 189.371 454.038 189.04 453.059 188.372C452.079 187.699 451.494 186.76 451.303 185.556L454.311 185.257C454.449 185.848 454.74 186.293 455.184 186.593C455.628 186.893 456.205 187.041 456.916 187.039C457.649 187.037 458.236 186.885 458.678 186.582C459.126 186.28 459.35 185.907 459.348 185.464C459.347 185.089 459.201 184.78 458.911 184.536C458.626 184.293 458.182 184.106 457.58 183.978L455.345 183.516C454.089 183.258 453.158 182.821 452.554 182.203C451.95 181.58 451.649 180.791 451.652 179.836C451.644 179.03 451.861 178.33 452.302 177.738C452.749 177.14 453.37 176.678 454.164 176.352C454.965 176.02 455.887 175.852 456.933 175.849C458.467 175.844 459.675 176.167 460.558 176.818C461.446 177.469 461.997 178.351 462.211 179.464ZM470.933 189.324C469.621 189.327 468.487 189.058 467.53 188.516C466.58 187.967 465.847 187.191 465.333 186.187C464.819 185.177 464.559 183.988 464.555 182.618C464.551 181.272 464.803 180.089 465.311 179.071C465.825 178.046 466.545 177.249 467.469 176.678C468.393 176.101 469.481 175.811 470.731 175.807C471.537 175.805 472.299 175.933 473.016 176.192C473.738 176.446 474.376 176.841 474.929 177.38C475.487 177.918 475.927 178.604 476.247 179.438C476.568 180.267 476.73 181.255 476.734 182.402L476.736 183.349L466.006 183.381L466 181.302L473.773 181.278C473.765 180.687 473.636 180.162 473.384 179.702C473.133 179.237 472.782 178.872 472.333 178.606C471.889 178.34 471.371 178.208 470.78 178.21C470.15 178.212 469.596 178.367 469.12 178.676C468.644 178.978 468.273 179.377 468.007 179.872C467.747 180.362 467.615 180.899 467.611 181.484L467.617 183.299C467.619 184.061 467.76 184.714 468.04 185.258C468.321 185.797 468.711 186.211 469.212 186.499C469.713 186.782 470.298 186.922 470.969 186.92C471.418 186.919 471.824 186.855 472.187 186.729C472.55 186.597 472.865 186.406 473.131 186.155C473.398 185.904 473.598 185.594 473.734 185.224L476.615 185.539C476.436 186.301 476.091 186.967 475.582 187.537C475.078 188.101 474.431 188.54 473.642 188.855C472.853 189.164 471.951 189.32 470.933 189.324ZM489.753 179.38L486.942 179.695C486.861 179.412 486.721 179.145 486.522 178.896C486.328 178.646 486.066 178.445 485.736 178.293C485.406 178.14 485.002 178.065 484.525 178.066C483.883 178.068 483.343 178.209 482.907 178.489C482.476 178.769 482.264 179.13 482.271 179.573C482.266 179.954 482.406 180.263 482.691 180.501C482.982 180.739 483.46 180.933 484.125 181.085L486.359 181.555C487.599 181.818 488.52 182.239 489.124 182.817C489.734 183.394 490.043 184.152 490.052 185.089C490.049 185.913 489.809 186.641 489.334 187.273C488.864 187.9 488.209 188.39 487.37 188.745C486.53 189.1 485.564 189.279 484.473 189.282C482.871 189.287 481.58 188.956 480.601 188.289C479.622 187.615 479.037 186.677 478.845 185.473L481.853 185.174C481.991 185.764 482.282 186.21 482.726 186.509C483.171 186.809 483.748 186.958 484.458 186.956C485.191 186.954 485.778 186.801 486.221 186.499C486.669 186.196 486.892 185.823 486.891 185.38C486.889 185.005 486.744 184.696 486.453 184.453C486.168 184.209 485.725 184.023 485.122 183.894L482.888 183.432C481.631 183.175 480.701 182.737 480.097 182.12C479.492 181.496 479.192 180.708 479.195 179.753C479.186 178.946 479.403 178.247 479.844 177.654C480.292 177.056 480.912 176.594 481.707 176.268C482.507 175.936 483.43 175.769 484.475 175.765C486.009 175.761 487.218 176.084 488.1 176.734C488.989 177.385 489.54 178.267 489.753 179.38Z" fill="white"/>
<path d="M695.569 157.386L695.552 151.625L708.975 139.12C710.117 138.008 711.074 137.008 711.847 136.12C712.632 135.231 713.227 134.361 713.63 133.511C714.034 132.648 714.234 131.718 714.231 130.72C714.228 129.612 713.973 128.659 713.465 127.861C712.958 127.05 712.267 126.43 711.392 126.002C710.516 125.561 709.525 125.343 708.417 125.346C707.259 125.349 706.251 125.586 705.39 126.057C704.53 126.527 703.867 127.2 703.402 128.076C702.937 128.951 702.706 129.992 702.71 131.199L695.12 131.222C695.113 128.747 695.667 126.597 696.781 124.772C697.896 122.947 699.461 121.532 701.477 120.529C703.493 119.526 705.818 119.02 708.453 119.012C711.161 119.004 713.52 119.477 715.53 120.431C717.551 121.373 719.125 122.685 720.25 124.368C721.376 126.051 721.942 127.983 721.948 130.161C721.953 131.59 721.674 133 721.112 134.393C720.562 135.786 719.576 137.333 718.153 139.037C716.73 140.728 714.723 142.759 712.133 145.13L706.628 150.557L706.629 150.816L722.509 150.768L722.529 157.305L695.569 157.386ZM737.849 158.089C734.673 158.087 731.938 157.313 729.643 155.769C727.361 154.225 725.6 151.983 724.36 149.045C723.133 146.106 722.519 142.569 722.518 138.433C722.506 134.309 723.105 130.792 724.315 127.883C725.537 124.974 727.284 122.759 729.557 121.238C731.842 119.704 734.567 118.933 737.731 118.923C740.894 118.914 743.617 119.669 745.899 121.188C748.194 122.708 749.961 124.918 751.201 127.82C752.441 130.709 753.061 134.216 753.061 138.34C753.073 142.489 752.469 146.036 751.247 148.982C750.037 151.928 748.295 154.18 746.023 155.738C743.75 157.296 741.026 158.08 737.849 158.089ZM737.829 151.46C739.996 151.453 741.722 150.359 743.008 148.176C744.294 145.993 744.925 142.723 744.899 138.365C744.89 135.496 744.588 133.109 743.991 131.203C743.407 129.296 742.577 127.865 741.503 126.908C740.442 125.951 739.191 125.474 737.751 125.479C735.596 125.485 733.876 126.568 732.59 128.726C731.304 130.884 730.661 134.111 730.662 138.408C730.671 141.313 730.967 143.737 731.552 145.681C732.149 147.612 732.984 149.062 734.058 150.031C735.132 150.988 736.389 151.464 737.829 151.46ZM764.799 151.415L764.72 125.268L771.331 125.248L771.41 151.395L764.799 151.415ZM755.001 141.676L754.981 135.066L781.129 134.986L781.149 141.597L755.001 141.676Z" fill="white"/>
<path d="M657.388 188.502L657.335 171.048L668.687 171.014L668.695 173.664L660.505 173.689L660.52 178.428L668.122 178.405L668.13 181.055L660.528 181.078L660.542 185.842L668.801 185.817L668.809 188.468L657.388 188.502ZM674.385 175.36L677.042 180.184L679.712 175.344L682.976 175.334L679.05 181.891L683.084 188.425L679.836 188.434L677.052 183.73L674.322 188.451L671.05 188.461L675.018 181.904L671.112 175.37L674.385 175.36ZM685.489 193.326L685.434 175.326L688.468 175.317L688.475 177.482L688.654 177.481C688.812 177.163 689.035 176.824 689.324 176.465C689.613 176.101 690.004 175.79 690.497 175.533C690.991 175.27 691.621 175.137 692.388 175.135C693.399 175.132 694.312 175.388 695.126 175.902C695.946 176.411 696.596 177.168 697.076 178.172C697.562 179.17 697.807 180.397 697.812 181.851C697.816 183.289 697.584 184.511 697.116 185.518C696.647 186.525 696.007 187.294 695.196 187.825C694.386 188.356 693.466 188.623 692.438 188.626C691.688 188.629 691.065 188.505 690.57 188.257C690.075 188.008 689.676 187.709 689.374 187.357C689.077 187 688.846 186.663 688.681 186.345L688.553 186.345L688.574 193.317L685.489 193.326ZM688.48 181.863C688.482 182.709 688.604 183.45 688.844 184.086C689.09 184.722 689.441 185.218 689.897 185.574C690.358 185.925 690.916 186.1 691.569 186.098C692.251 186.096 692.821 185.912 693.28 185.547C693.74 185.176 694.085 184.672 694.316 184.035C694.552 183.393 694.669 182.662 694.667 181.844C694.665 181.031 694.546 180.31 694.311 179.68C694.076 179.05 693.728 178.557 693.267 178.2C692.805 177.844 692.231 177.667 691.544 177.669C690.884 177.671 690.325 177.846 689.866 178.194C689.407 178.542 689.059 179.029 688.822 179.654C688.591 180.28 688.477 181.016 688.48 181.863ZM706.342 188.61C705.029 188.614 703.895 188.344 702.939 187.802C701.988 187.254 701.256 186.477 700.741 185.473C700.227 184.463 699.968 183.274 699.964 181.905C699.96 180.558 700.212 179.375 700.72 178.357C701.234 177.333 701.953 176.535 702.877 175.964C703.802 175.387 704.889 175.097 706.139 175.093C706.946 175.091 707.708 175.219 708.424 175.478C709.147 175.732 709.784 176.128 710.337 176.666C710.895 177.204 711.335 177.89 711.656 178.724C711.976 179.553 712.139 180.541 712.142 181.689L712.145 182.635L701.415 182.667L701.408 180.588L709.181 180.564C709.174 179.973 709.044 179.448 708.793 178.989C708.541 178.523 708.191 178.158 707.741 177.892C707.297 177.627 706.78 177.495 706.189 177.496C705.558 177.498 705.005 177.653 704.528 177.962C704.052 178.264 703.681 178.663 703.416 179.158C703.156 179.648 703.024 180.185 703.02 180.77L703.025 182.586C703.028 183.347 703.169 184 703.449 184.545C703.729 185.084 704.119 185.497 704.62 185.785C705.121 186.068 705.707 186.208 706.377 186.206C706.826 186.205 707.232 186.141 707.595 186.015C707.959 185.883 708.273 185.692 708.54 185.441C708.806 185.19 709.007 184.88 709.142 184.51L712.024 184.825C711.844 185.587 711.5 186.253 710.99 186.823C710.486 187.387 709.84 187.826 709.051 188.141C708.262 188.45 707.359 188.607 706.342 188.61ZM714.844 188.328L714.805 175.237L717.796 175.228L717.803 177.41L717.939 177.41C718.175 176.653 718.583 176.07 719.161 175.659C719.745 175.242 720.412 175.033 721.162 175.031C721.332 175.03 721.523 175.038 721.733 175.054C721.949 175.065 722.128 175.085 722.27 175.112L722.279 177.951C722.148 177.905 721.94 177.866 721.656 177.833C721.378 177.794 721.108 177.775 720.846 177.776C720.284 177.778 719.779 177.901 719.33 178.147C718.888 178.387 718.54 178.72 718.285 179.147C718.031 179.574 717.904 180.066 717.906 180.623L717.929 188.319L714.844 188.328ZM731.632 175.186L731.639 177.573L724.114 177.596L724.107 175.209L731.632 175.186ZM725.955 172.067L729.04 172.058L729.078 184.348C729.079 184.762 729.142 185.08 729.268 185.302C729.399 185.517 729.57 185.664 729.781 185.743C729.991 185.822 730.224 185.861 730.48 185.86C730.673 185.86 730.849 185.845 731.008 185.816C731.173 185.787 731.298 185.761 731.383 185.738L731.91 188.149C731.745 188.206 731.51 188.269 731.203 188.338C730.902 188.407 730.533 188.448 730.096 188.461C729.323 188.486 728.627 188.372 728.007 188.118C727.386 187.858 726.894 187.456 726.528 186.912C726.169 186.368 725.991 185.686 725.994 184.868L725.955 172.067ZM740.433 170.796L744.302 170.784L749.522 183.416L749.727 183.416L754.87 170.752L758.739 170.741L758.792 188.195L755.758 188.204L755.722 176.213L755.56 176.213L750.772 188.168L748.505 188.175L743.645 176.224L743.483 176.224L743.52 188.241L740.486 188.25L740.433 170.796ZM767.967 188.423C766.655 188.427 765.52 188.158 764.564 187.615C763.614 187.067 762.881 186.291 762.367 185.286C761.852 184.277 761.593 183.087 761.589 181.718C761.585 180.371 761.837 179.189 762.345 178.17C762.859 177.146 763.578 176.348 764.503 175.777C765.427 175.2 766.514 174.91 767.764 174.906C768.571 174.904 769.333 175.032 770.05 175.291C770.772 175.545 771.41 175.941 771.962 176.479C772.521 177.017 772.96 177.703 773.281 178.537C773.602 179.366 773.764 180.354 773.767 181.502L773.77 182.448L763.04 182.48L763.034 180.401L770.807 180.377C770.799 179.786 770.67 179.261 770.418 178.802C770.167 178.337 769.816 177.971 769.367 177.705C768.923 177.44 768.405 177.308 767.814 177.31C767.184 177.312 766.63 177.467 766.154 177.775C765.677 178.077 765.306 178.476 765.041 178.971C764.781 179.461 764.649 179.998 764.645 180.583L764.651 182.399C764.653 183.16 764.794 183.813 765.074 184.358C765.354 184.897 765.745 185.31 766.246 185.599C766.746 185.881 767.332 186.021 768.003 186.019C768.451 186.018 768.858 185.954 769.221 185.828C769.584 185.696 769.899 185.505 770.165 185.254C770.431 185.003 770.632 184.693 770.767 184.323L773.649 184.639C773.469 185.4 773.125 186.066 772.615 186.636C772.111 187.2 771.465 187.64 770.676 187.954C769.887 188.264 768.984 188.42 767.967 188.423ZM779.532 180.462L779.555 188.132L776.47 188.141L776.43 175.051L779.379 175.042L779.385 177.266L779.539 177.266C779.838 176.532 780.316 175.948 780.974 175.514C781.637 175.08 782.458 174.862 783.435 174.859C784.338 174.856 785.126 175.047 785.798 175.431C786.475 175.816 786.999 176.374 787.371 177.105C787.748 177.837 787.935 178.726 787.933 179.771L787.958 188.107L784.873 188.116L784.849 180.258C784.846 179.383 784.617 178.699 784.161 178.206C783.711 177.713 783.088 177.468 782.292 177.47C781.753 177.472 781.273 177.593 780.853 177.833C780.439 178.067 780.113 178.406 779.876 178.85C779.644 179.294 779.53 179.831 779.532 180.462ZM797.664 174.986L797.671 177.373L790.145 177.395L790.138 175.009L797.664 174.986ZM791.987 171.867L795.072 171.858L795.109 184.147C795.11 184.562 795.174 184.88 795.299 185.101C795.431 185.317 795.602 185.464 795.812 185.543C796.023 185.622 796.256 185.661 796.511 185.66C796.705 185.66 796.881 185.645 797.04 185.616C797.204 185.587 797.329 185.561 797.414 185.538L797.942 187.948C797.777 188.006 797.541 188.069 797.235 188.138C796.934 188.207 796.565 188.248 796.127 188.261C795.355 188.286 794.658 188.171 794.038 187.918C793.418 187.658 792.925 187.256 792.56 186.712C792.2 186.168 792.022 185.486 792.025 184.668L791.987 171.867ZM805.926 188.308C804.648 188.312 803.539 188.034 802.6 187.474C801.66 186.914 800.931 186.13 800.411 185.12C799.896 184.11 799.637 182.929 799.633 181.577C799.629 180.225 799.881 179.039 800.389 178.021C800.903 177.002 801.628 176.21 802.564 175.645C803.5 175.079 804.607 174.795 805.885 174.791C807.163 174.787 808.272 175.065 809.211 175.624C810.151 176.184 810.877 176.972 811.392 177.987C811.912 179.003 812.174 180.187 812.178 181.539C812.182 182.891 811.927 184.074 811.413 185.087C810.905 186.099 810.183 186.889 809.247 187.454C808.312 188.019 807.204 188.304 805.926 188.308ZM805.936 185.836C806.629 185.834 807.208 185.642 807.672 185.26C808.137 184.872 808.482 184.354 808.708 183.706C808.939 183.057 809.053 182.335 809.05 181.54C809.048 180.739 808.929 180.015 808.694 179.368C808.465 178.715 808.117 178.196 807.65 177.811C807.183 177.426 806.603 177.235 805.909 177.237C805.199 177.239 804.609 177.434 804.139 177.822C803.674 178.209 803.326 178.73 803.095 179.384C802.87 180.033 802.758 180.758 802.761 181.559C802.763 182.354 802.879 183.075 803.108 183.723C803.343 184.37 803.694 184.886 804.161 185.27C804.634 185.65 805.225 185.838 805.936 185.836ZM814.889 188.025L814.849 174.934L817.84 174.925L817.847 177.107L817.983 177.106C818.22 176.35 818.627 175.766 819.205 175.356C819.789 174.939 820.456 174.73 821.206 174.727C821.377 174.727 821.567 174.735 821.777 174.751C821.993 174.762 822.172 174.781 822.314 174.809L822.323 177.647C822.192 177.602 821.985 177.563 821.7 177.53C821.422 177.491 821.152 177.472 820.891 177.473C820.328 177.474 819.823 177.598 819.375 177.844C818.932 178.084 818.584 178.417 818.329 178.844C818.075 179.271 817.949 179.763 817.95 180.32L817.974 188.016L814.889 188.025Z" fill="white"/>
<circle cx="166.758" cy="174.465" r="165" transform="rotate(-0.173721 166.758 174.465)" stroke="white"/>
<circle cx="451.745" cy="169.601" r="167" transform="rotate(-0.173721 451.745 169.601)" stroke="white"/>
<circle cx="741.747" cy="169.721" r="168" transform="rotate(-0.173721 741.747 169.721)" stroke="white"/>
</svg>
